<svg xmlns="http://www.w3.org/2000/svg" width="137.997" height="42.194" fill="#fff" xmlns:v="https://vecta.io/nano"><path d="M137.996 35.022h-.312V33.69h0l-.3 1.332h-.328l-.292-1.332h0v1.332h-.312v-1.594h.489l.29 1.257h0l.286-1.257h.484zm-2.22 0h-.335V33.71h-.484v-.282h1.3v.282h-.481zm-3.644-1.902v3.576h-3.877V33.12H126.8v8.864h1.455v-3.9h3.88v3.9h1.455V33.12zm-14.457 1.362h2.761v7.5h1.455v-7.5h2.759V33.12h-6.977zm-5.056-1.362h-1.455v8.864h5.3v-1.362h-3.844zm-8.46 0l-3.831 8.864h1.595l2.823-6.82 2.834 6.82h1.605l-3.806-8.864zm-9.642 4.938h4v-1.362h-4v-2.215h4.275V33.12h-5.73v8.864h5.87v-1.362h-4.415zm-6.011-1.361h-3.88V33.12h-1.455v8.864h1.455v-3.9h3.88v3.9h1.459V33.12H88.51zm-13.939-2.475a4.57 4.57 0 0 0-1.5-.83c-.529-.178-1.082-.269-1.64-.272h-3.046v8.864h3.046a5.2 5.2 0 0 0 1.64-.272 4.57 4.57 0 0 0 1.5-.83c.454-.381.824-.854 1.086-1.386a4.72 4.72 0 0 0 0-3.88c-.261-.535-.631-1.01-1.087-1.393m-4.729.26h1.358a3.89 3.89 0 0 1 1.505.267 3.1 3.1 0 0 1 1.045.693 2.81 2.81 0 0 1 .615.972 3.22 3.22 0 0 1 0 2.276c-.136.363-.346.694-.615.972a3.1 3.1 0 0 1-1.045.692 3.89 3.89 0 0 1-1.506.267h-1.358zm-8.415 3.575h4v-1.362h-4v-2.215h4.275V33.12h-5.73v8.864h5.87v-1.362h-4.415zm-5.027 1.687a2.27 2.27 0 0 1-.944.823 2.94 2.94 0 0 1-1.224.263 3.1 3.1 0 0 1-1.3-.262 2.94 2.94 0 0 1-.976-.709 3.21 3.21 0 0 1-.622-1.044c-.147-.405-.222-.833-.22-1.264a3.84 3.84 0 0 1 .215-1.266 3.13 3.13 0 0 1 .615-1.042 2.94 2.94 0 0 1 .976-.709 3.13 3.13 0 0 1 1.311-.262 2.53 2.53 0 0 1 .659.082 2.89 2.89 0 0 1 .573.221c.159.08.307.181.44.3a1.79 1.79 0 0 1 .294.337l.178.274 1.2-.882-.171-.247a2.74 2.74 0 0 0-.59-.613c-.235-.178-.49-.328-.76-.448a4.56 4.56 0 0 0-1.838-.388 4.74 4.74 0 0 0-1.825.35 4.4 4.4 0 0 0-2.432 2.439 4.84 4.84 0 0 0-.349 1.853 4.91 4.91 0 0 0 .343 1.851c.436 1.113 1.313 1.996 2.422 2.441a4.81 4.81 0 0 0 1.841.35c.374.003.747-.042 1.11-.134a4.17 4.17 0 0 0 .931-.365 3.63 3.63 0 0 0 .751-.539c.208-.194.393-.412.552-.648l.174-.261-1.17-.752zm-10.896-.255l-4.352-6.37h-1.519v8.864h1.455v-6.432l4.351 6.432h1.52V33.12h-1.455zm-12.872-6.37l-3.831 8.864h1.595l2.823-6.82 2.834 6.82h1.605l-3.806-8.864zm-8.616 6.62l-2.477-6.624h-1.569l3.38 8.864h1.309l3.393-8.864h-1.558zm-7.008-5.518a4.58 4.58 0 0 0-1.5-.83c-.529-.178-1.082-.269-1.64-.272h-3.044v8.864h3.045a5.2 5.2 0 0 0 1.64-.272 4.57 4.57 0 0 0 1.5-.83 4.27 4.27 0 0 0 1.086-1.386 4.72 4.72 0 0 0 0-3.88c-.261-.535-.631-1.01-1.087-1.393m-4.729.26h1.359a3.89 3.89 0 0 1 1.505.267 3.1 3.1 0 0 1 1.045.693c.269.278.479.609.615.972.277.734.277 1.543 0 2.277-.136.363-.346.694-.615.972a3.1 3.1 0 0 1-1.045.692c-.479.188-.991.279-1.505.267h-1.359zM3.831 33.12L0 41.984h1.6l2.823-6.82 2.834 6.82h1.601L5.052 33.12zM129.176 4.73h-.312V3.398h0l-.3 1.332h-.328l-.292-1.332h0V4.73h-.312V3.136h.489l.29 1.257h0l.286-1.257h.484zm-2.219 0h-.335V3.418h-.484v-.282h1.3v.282h-.484zm2.387 13.781c-1.916-.024-3.657 1.113-4.407 2.876s-.361 3.806.986 5.169a4.73 4.73 0 0 0 5.156 1.053c1.773-.727 2.932-2.453 2.933-4.369a4.7 4.7 0 0 0-4.668-4.729m2.695-6.148c-.032-2.518-2.094-4.536-4.612-4.515s-4.545 2.073-4.536 4.591 2.053 4.555 4.571 4.557a4.6 4.6 0 0 0 4.578-4.632m-19.125-1.928c3.985-.051 7.606 2.311 9.166 5.978s.75 7.914-2.05 10.749-7.036 3.699-10.723 2.185-6.094-5.105-6.093-9.09a9.77 9.77 0 0 1 9.7-9.823"/><path d="M119.106 9.539c1.88.025 3.589-1.089 4.325-2.819s.354-3.734-.968-5.071-3.32-1.744-5.059-1.028-2.873 2.411-2.871 4.291a4.6 4.6 0 0 0 4.573 4.628m-11.21-.08c1.248-.007 2.442-.509 3.32-1.397s1.367-2.087 1.36-3.335c0-2.582-2.093-4.675-4.675-4.675s-4.675 2.093-4.675 4.675a4.71 4.71 0 0 0 4.67 4.732m-18.805 1.114c-.8-.308-1.79-1.165-1.532-2.052a1.71 1.71 0 0 1 2.124-1.123c.952.365 1.819.922 2.547 1.635a4.15 4.15 0 0 0 4.606.6c1.538-1.016 2.062-3.028 1.216-4.665a8.1 8.1 0 0 0-5.56-4.213c-3.593-.85-9.532-1.179-12.711 3.73a10 10 0 0 0-.415 8.83c1.57 3.369 5.457 4.432 8.751 5.384 1.008.291 2.432.992 2.035 2.239a1.76 1.76 0 0 1-2.006 1.06c-1.339-.106-2.319-.994-3.378-1.716a7.04 7.04 0 0 0-3.923-1.3c-2.853.03-4.11 3.373-3.3 5.819a5.27 5.27 0 0 0 1.161 1.969 16.53 16.53 0 0 0 1.528 1.254c3.679 2.829 11.645 3.311 16.01-.059a9.46 9.46 0 0 0 3.283-6.6c.5-6.806-5.492-8.867-10.436-10.787m-14.29 12.815l-2.85-18.149C71.611 3.109 70.779.256 67.23.234c-3.174-.02-3.63 1.051-5.286 4.281l-3.935 9.318-3.933-9.318c-1.657-3.227-2.109-4.3-5.282-4.282-3.55.022-4.383 2.875-4.726 5.006L41.21 23.39l-.171 1.446c-.104 1.324.351 2.631 1.254 3.605s2.172 1.526 3.5 1.522a4.31 4.31 0 0 0 4.542-3.713l1.213-6.026 2.24 5.84c.829 1.6 1.762 3.9 4.214 3.9 2.43 0 3.508-2.289 4.28-3.9l2.305-5.981 1.081 6.172c.331 2.228 2.306 3.837 4.555 3.709a4.7 4.7 0 0 0 4.742-5.125l-.166-1.446m-36.052.26L31.601 6.635c-1.224-3.13-2.224-6.38-6.049-6.38-3.92 0-4.9 3.341-6.193 6.416l-7 16.979c-1.105 2.891-.264 5.168 2.171 6.212 2.48 1.041 4.9-.114 6.074-2.775l1.533-3.127h7.129l1.3 3.127a4.4 4.4 0 0 0 6.011 2.777c2.439-1.039 3.28-3.318 2.178-6.21m-13.264-4.219c-.97.013-1.852-.561-2.233-1.453s-.185-1.926.495-2.618a2.39 2.39 0 0 1 2.609-.538c.898.366 1.487 1.239 1.49 2.209.008 1.314-1.048 2.386-2.361 2.4M5.319.17C2.823.087.726 2.03.619 4.525v21.242c.023 1.195.528 2.329 1.4 3.146a4.17 4.17 0 0 0 3.294 1.278 4.74 4.74 0 0 0 4.653-4.416l.006-21.2C9.881 2.084 7.812.124 5.319.17"/></svg>