<svg xmlns="http://www.w3.org/2000/svg" width="89.571" height="27.388" fill="#fff" xmlns:v="https://vecta.io/nano"><path d="M89.571 22.732h-.2v-.865h0l-.194.865h-.213l-.19-.865h0v.865h-.2v-1.035h.317l.188.816h0l.185-.816h.314zm-1.44 0h-.214v-.852h-.314v-.183h.846v.183h-.314zm-2.371-1.234v2.32h-2.519v-2.32h-.944v5.753h.944v-2.533h2.519v2.533h.944v-5.753zm-9.379.884h1.792v4.869h.944v-4.869h1.792v-.884h-4.528zm-3.282-.884h-.944v5.753h3.44v-.884h-2.5zm-5.488 0l-2.487 5.753h1.035l1.833-4.427 1.84 4.427h1.042l-2.47-5.753zm-6.262 3.206h2.591v-.886h-2.594v-1.437h2.775v-.884h-3.719v5.753h3.81v-.884h-2.866zm-3.902-.886h-2.518v-2.32h-.944v5.753h.944v-2.533h2.519v2.533h.944v-5.753h-.944zm-9.043-1.6c-.287-.239-.617-.422-.972-.539a3.39 3.39 0 0 0-1.063-.181h-1.977v5.753h1.977a3.38 3.38 0 0 0 1.065-.176 2.97 2.97 0 0 0 .972-.539 2.77 2.77 0 0 0 .705-.9c.361-.801.361-1.717 0-2.518a2.76 2.76 0 0 0-.705-.9m-3.07.169h.881a2.51 2.51 0 0 1 .977.173 2.01 2.01 0 0 1 .678.45 1.84 1.84 0 0 1 .4.631 2.09 2.09 0 0 1 0 1.478 1.84 1.84 0 0 1-.4.631 2.02 2.02 0 0 1-.678.449 2.51 2.51 0 0 1-.977.173h-.881zm-5.468 2.317h2.594v-.886h-2.594v-1.437h2.775v-.884h-3.719v5.753h3.81v-.884h-2.866zm-3.263 1.098c-.15.232-.362.418-.612.535a1.91 1.91 0 0 1-.794.171c-.29.005-.578-.053-.843-.17a1.91 1.91 0 0 1-.634-.46c-.175-.199-.311-.429-.4-.678a2.37 2.37 0 0 1-.143-.821 2.43 2.43 0 0 1 .139-.822 2.03 2.03 0 0 1 .4-.676 1.91 1.91 0 0 1 .634-.46 2.03 2.03 0 0 1 .851-.17c.144-.001.288.017.428.053.129.034.253.082.372.143a1.33 1.33 0 0 1 .286.2 1.16 1.16 0 0 1 .191.218l.115.178.781-.573-.111-.16a1.78 1.78 0 0 0-.383-.4c-.153-.116-.319-.213-.494-.291a2.96 2.96 0 0 0-1.193-.252 3.08 3.08 0 0 0-1.184.227c-.72.291-1.29.863-1.579 1.583a3.14 3.14 0 0 0-.227 1.2 3.18 3.18 0 0 0 .222 1.2c.283.722.852 1.295 1.572 1.584a3.12 3.12 0 0 0 1.2.227 2.84 2.84 0 0 0 .72-.087c.209-.055.41-.134.6-.237.177-.095.34-.213.487-.35a2.44 2.44 0 0 0 .358-.421l.113-.169-.759-.488zm-7.073-.169l-2.825-4.135h-.986v5.753h.944v-4.175l2.824 4.175h.986v-5.753h-.944zm-8.354-4.135l-2.487 5.753h1.035l1.833-4.427 1.84 4.427h1.042l-2.47-5.753zm-5.593 4.3l-1.608-4.3h-1.018l2.194 5.753h.85l2.2-5.753h-1.012zm-4.548-3.58c-.287-.239-.617-.422-.972-.539A3.39 3.39 0 0 0 9 21.503H7.023v5.753H9a3.38 3.38 0 0 0 1.065-.176 2.97 2.97 0 0 0 .972-.539 2.77 2.77 0 0 0 .705-.9 3.07 3.07 0 0 0 0-2.518 2.76 2.76 0 0 0-.705-.9m-3.07.169h.881a2.51 2.51 0 0 1 .977.173c.254.102.485.255.678.45a1.84 1.84 0 0 1 .4.631 2.09 2.09 0 0 1 0 1.478 1.84 1.84 0 0 1-.4.631 2.02 2.02 0 0 1-.678.449 2.52 2.52 0 0 1-.977.173h-.881zm-5.48-.894L0 27.252h1.035l1.833-4.427 1.84 4.427H5.75l-2.47-5.753zm81.36-18.431h-.2v-.865h0l-.194.865h-.213l-.19-.865h0v.865h-.2V2.036h.317l.188.816h0l.185-.816h.314zm-1.44 0h-.217v-.852h-.314v-.183h.846v.183h-.314zm1.548 8.948c-1.243-.015-2.373.722-2.859 1.867s-.234 2.469.64 3.354a3.07 3.07 0 0 0 3.346.684c1.151-.471 1.903-1.591 1.904-2.835a3.05 3.05 0 0 0-3.03-3.07m1.75-3.99a2.97 2.97 0 0 0-2.993-2.931 2.97 2.97 0 0 0-2.944 2.98 2.97 2.97 0 0 0 2.967 2.958 2.99 2.99 0 0 0 2.971-3.007M73.292 6.774a6.38 6.38 0 0 1 4.613 10.859 6.38 6.38 0 0 1-6.959 1.417c-2.392-.982-3.954-3.313-3.954-5.899a6.34 6.34 0 0 1 6.3-6.376"/><path d="M77.315 6.194a3.01 3.01 0 0 0 2.178-5.123 3.01 3.01 0 0 0-3.286-.665 3.01 3.01 0 0 0-1.861 2.788 2.99 2.99 0 0 0 2.968 3m-7.28-.054c1.686-.011 3.044-1.385 3.035-3.071.02-1.097-.554-2.12-1.501-2.674a3.04 3.04 0 0 0-3.067 0C67.554.949 66.98 1.972 67 3.069c-.008 1.685 1.349 3.059 3.034 3.071m-12.206.723c-.518-.2-1.162-.756-.994-1.332a1.11 1.11 0 0 1 1.381-.729 4.84 4.84 0 0 1 1.651 1.06 2.69 2.69 0 0 0 2.991.384 2.34 2.34 0 0 0 .789-3.028A5.26 5.26 0 0 0 60.037.483c-2.332-.552-6.187-.765-8.25 2.421a6.49 6.49 0 0 0-.27 5.732c1.019 2.187 3.542 2.877 5.68 3.495.654.189 1.579.644 1.321 1.454-.209.515-.757.805-1.3.688-.817-.169-1.574-.554-2.193-1.114a4.57 4.57 0 0 0-2.546-.844c-1.852.02-2.668 2.19-2.142 3.777a3.42 3.42 0 0 0 .754 1.278 10.89 10.89 0 0 0 .992.814c2.388 1.836 7.558 2.149 10.392-.038a6.14 6.14 0 0 0 2.131-4.286c.327-4.417-3.565-5.756-6.774-7m-9.279 8.324l-1.85-11.78c-.221-1.386-.761-3.238-3.065-3.253-2.06-.013-2.356.682-3.431 2.779l-2.554 6.048L35.1 2.927C34.024.833 33.731.138 31.672.148c-2.3.014-2.845 1.866-3.068 3.249l-1.858 11.782-.111.939a3.08 3.08 0 0 0 .814 2.34 3.09 3.09 0 0 0 2.272.988 2.8 2.8 0 0 0 2.952-2.412l.787-3.911 1.454 3.791c.538 1.041 1.144 2.529 2.735 2.529s2.277-1.485 2.778-2.529l1.5-3.882.7 4.006a2.83 2.83 0 0 0 2.956 2.408 3.05 3.05 0 0 0 3.078-3.327l-.108-.938m-23.403.172L20.512 4.307C19.717 2.275 19.069.166 16.586.166c-2.544 0-3.182 2.169-4.02 4.164L8.022 15.351c-.718 1.877-.171 3.354 1.409 4.032a2.94 2.94 0 0 0 3.943-1.8l.992-2.03h4.627l.841 2.03c.233.789.795 1.439 1.542 1.784s1.606.351 2.358.016c1.583-.674 2.129-2.154 1.413-4.031m-8.6-2.738c-.63.009-1.204-.364-1.451-.943s-.12-1.251.322-1.701a1.55 1.55 0 0 1 1.695-.348c.583.239.965.806.966 1.436a1.55 1.55 0 0 1-1.532 1.556M3.453.11C1.834.058.474 1.318.405 2.937v13.787a2.87 2.87 0 0 0 .91 2.042 2.71 2.71 0 0 0 2.138.829c1.598-.025 2.911-1.271 3.02-2.866l.006-13.763A2.97 2.97 0 0 0 3.453.11"/></svg>