<svg xmlns="http://www.w3.org/2000/svg" width="91.782" height="28.063" fill="#fff" xmlns:v="https://vecta.io/nano"><path d="M91.781 23.293h-.208v-.886h0l-.2.886h-.218l-.194-.886h0v.886h-.208v-1.06h.325l.193.836h0l.19-.836h.322zm-1.475 0h-.227v-.873h-.322v-.188h.867v.188h-.322zm-2.425-1.265v2.379H85.3v-2.379h-.968v5.9h.968v-2.6h2.581v2.6h.968v-5.9zm-9.615.906h1.836v4.99h.968v-4.99h1.836v-.906h-4.64zm-3.363-.906h-.968v5.9h3.524v-.906h-2.557zm-5.625 0l-2.548 5.9h1.061l1.878-4.536 1.885 4.536h1.068l-2.531-5.9zm-6.414 3.285h2.658v-.906h-2.658v-1.473h2.843v-.906h-3.811v5.9h3.9v-.906H62.86zm-3.999-.906h-2.581v-2.379h-.968v5.9h.968v-2.6h2.581v2.6h.968v-5.9h-.968zm-9.267-1.646a3.05 3.05 0 0 0-1-.552 3.49 3.49 0 0 0-1.091-.181h-2.026v5.9h2.026a3.47 3.47 0 0 0 1.091-.181c.365-.119.704-.307 1-.552.303-.254.549-.568.723-.922a3.14 3.14 0 0 0 0-2.581 2.83 2.83 0 0 0-.723-.927m-3.145.173h.9a2.59 2.59 0 0 1 1 .178 2.06 2.06 0 0 1 .7.461 1.88 1.88 0 0 1 .409.646c.184.488.184 1.026 0 1.514a1.88 1.88 0 0 1-.409.647 2.07 2.07 0 0 1-.695.461 2.59 2.59 0 0 1-1 .178h-.9zm-5.601 2.375h2.658v-.906h-2.658v-1.473h2.843v-.906h-3.811v5.9h3.9v-.906h-2.936zm-3.344 1.122a1.51 1.51 0 0 1-.628.548c-.256.116-.533.176-.814.175-.297.005-.592-.055-.864-.175a1.96 1.96 0 0 1-.649-.472 2.09 2.09 0 0 1-.413-.694 2.43 2.43 0 0 1-.146-.841 2.49 2.49 0 0 1 .143-.842 2.08 2.08 0 0 1 .409-.693 1.96 1.96 0 0 1 .649-.472 2.08 2.08 0 0 1 .872-.175 1.7 1.7 0 0 1 .438.055c.132.035.26.085.381.147a1.36 1.36 0 0 1 .293.2 1.19 1.19 0 0 1 .2.224l.118.182.8-.587-.114-.164a1.82 1.82 0 0 0-.393-.408c-.157-.119-.326-.22-.506-.3a3.03 3.03 0 0 0-1.222-.258 3.15 3.15 0 0 0-1.214.232 2.93 2.93 0 0 0-1.618 1.622 3.22 3.22 0 0 0-.232 1.232c-.004.421.073.839.228 1.231a2.88 2.88 0 0 0 1.611 1.623 3.2 3.2 0 0 0 1.225.232 2.91 2.91 0 0 0 .738-.089c.213-.055.42-.135.614-.239a2.42 2.42 0 0 0 .5-.359 2.5 2.5 0 0 0 .367-.431l.116-.173-.778-.5zm-7.247-.17l-2.895-4.237h-1.01v5.9h.968v-4.28l2.894 4.278h1.011v-5.9h-.968zM21.7 22.028l-2.548 5.9h1.061l1.878-4.536 1.885 4.536h1.068l-2.531-5.9zm-5.73 4.406l-1.648-4.406h-1.043l2.248 5.9h.871l2.257-5.9h-1.037zm-4.66-3.673c-.296-.245-.635-.433-1-.552a3.49 3.49 0 0 0-1.091-.181H7.196v5.9h2.026a3.47 3.47 0 0 0 1.091-.181 3.04 3.04 0 0 0 1-.552 2.84 2.84 0 0 0 .723-.922 3.14 3.14 0 0 0 0-2.581 2.83 2.83 0 0 0-.723-.927m-3.145.173h.9a2.59 2.59 0 0 1 1 .178 2.06 2.06 0 0 1 .7.461 1.88 1.88 0 0 1 .409.646c.184.488.184 1.026 0 1.514a1.88 1.88 0 0 1-.409.647 2.06 2.06 0 0 1-.7.461 2.59 2.59 0 0 1-1 .178h-.9zm-5.62-.91L0 27.924h1.061l1.878-4.536 1.885 4.536h1.067l-2.531-5.9zm83.37-18.882h-.208V2.26h0l-.2.886h-.218l-.194-.886h0v.886h-.208v-1.06h.325l.193.836h0l.19-.836h.322zm-1.478 0h-.223v-.873h-.322v-.188h.867v.188h-.322zm1.586 9.165c-1.275-.017-2.434.737-2.934 1.909s-.243 2.531.652 3.439 2.249 1.186 3.429.703a3.14 3.14 0 0 0 1.952-2.905c.012-1.725-1.375-3.133-3.1-3.146m1.795-4.088c-.021-1.674-1.392-3.017-3.067-3.003a3.04 3.04 0 1 0 .022 6.084 3.06 3.06 0 0 0 3.045-3.081M75.1 6.941c2.65-.032 5.057 1.539 6.093 3.978s.497 5.262-1.365 7.148-4.679 2.459-7.13 1.453-4.052-3.394-4.052-6.044A6.5 6.5 0 0 1 75.1 6.941"/><path d="M79.219 6.347a3.08 3.08 0 0 0 2.232-5.248 3.08 3.08 0 0 0-3.365-.684 3.08 3.08 0 0 0-1.909 2.854c-.008 1.689 1.353 3.066 3.042 3.078m-7.457-.055a3.13 3.13 0 0 0 3.11-3.147 3.11 3.11 0 0 0-3.11-3.109 3.11 3.11 0 0 0-3.109 3.109 3.13 3.13 0 0 0 3.108 3.148m-12.507.739c-.53-.2-1.19-.775-1.019-1.364.187-.595.818-.928 1.415-.747.632.243 1.208.612 1.692 1.086a2.76 2.76 0 0 0 3.063.4 2.4 2.4 0 0 0 .809-3.1 5.39 5.39 0 0 0-3.7-2.8c-2.39-.565-6.34-.784-8.454 2.481a6.65 6.65 0 0 0-.276 5.873c1.044 2.241 3.629 2.948 5.82 3.581.67.193 1.618.66 1.353 1.489a1.17 1.17 0 0 1-1.334.705 4.79 4.79 0 0 1-2.247-1.141c-.764-.543-1.672-.844-2.609-.865-1.9.02-2.734 2.244-2.195 3.87.159.488.423.935.773 1.31a11.1 11.1 0 0 0 1.016.834c2.447 1.882 7.745 2.2 10.649-.039a6.29 6.29 0 0 0 2.183-4.391c.335-4.526-3.653-5.9-6.941-7.174m-9.502 8.519l-1.9-12.071c-.226-1.42-.779-3.318-3.14-3.333-2.108-.017-2.408.699-3.508 2.847l-2.617 6.2-2.616-6.2c-1.1-2.146-1.4-2.858-3.513-2.848-2.361.014-2.915 1.912-3.144 3.33l-1.9 12.072-.114.962a3.16 3.16 0 0 0 3.162 3.41c1.498.096 2.817-.981 3.022-2.468l.807-4.008 1.49 3.884c.552 1.067 1.172 2.592 2.8 2.592s2.333-1.522 2.847-2.592l1.533-3.978.719 4.105a2.9 2.9 0 0 0 3.029 2.467c.885.012 1.734-.352 2.336-1.002a3.12 3.12 0 0 0 .818-2.407l-.11-.962m-23.98.173L21.018 4.413C20.204 2.327 19.539.17 16.995.17c-2.607 0-3.26 2.222-4.119 4.267l-4.657 11.29c-.735 1.923-.176 3.437 1.444 4.132.778.329 1.658.316 2.426-.035a3.01 3.01 0 0 0 1.614-1.811l1.017-2.08h4.739l.862 2.08c.238.81.815 1.477 1.581 1.831s1.648.36 2.419.016c1.622-.691 2.182-2.207 1.448-4.131m-8.81-2.802a1.59 1.59 0 1 1 1.57-1.595c.004.873-.697 1.586-1.57 1.595M3.538.113a3.03 3.03 0 0 0-3.123 2.9v14.124a2.94 2.94 0 0 0 .932 2.092c.568.594 1.371.905 2.191.85 1.638-.026 2.983-1.302 3.095-2.937v-14.1A3.04 3.04 0 0 0 3.538.113"/></svg>