<svg xmlns="http://www.w3.org/2000/svg" width="235.166" height="22.012" fill="#fff" xmlns:v="https://vecta.io/nano"><path d="M220.418 21.426h14.743v-5.793h-8.192V13.7h7.227V8.287h-7.227V6.503h7.7V.709h-14.25zm-9.8-14.894h7.168V.709h-13.984v20.717h6.847v-7.023h6.291V8.698h-6.32zm-17.436 14.894h7.023V.709h-7.023zm-15.622 0h13.9v-6h-6.876V.709h-7.023zm-20.946-15.3h1.655a6.06 6.06 0 0 1 .7.044 2.09 2.09 0 0 1 .7.2 1.32 1.32 0 0 1 .523.483 1.65 1.65 0 0 1 .2.879 1.47 1.47 0 0 1-.248.892c-.16.22-.368.401-.609.527a2.37 2.37 0 0 1-.784.248 5.51 5.51 0 0 1-.77.059h-1.365zm-6.7 15.3h6.759v-7.4h.2l3.969 7.4h8l-5.256-8.4a5.87 5.87 0 0 0 3.619-5.589 6.6 6.6 0 0 0-.732-3.262 5.85 5.85 0 0 0-1.916-2.078c-.82-.529-1.733-.896-2.691-1.083a15.2 15.2 0 0 0-3.029-.307h-8.925zm-17.861-12.3a4.04 4.04 0 0 1 .848-1.4 3.83 3.83 0 0 1 1.3-.894c.519-.216 1.076-.326 1.638-.321 1.101-.014 2.159.426 2.927 1.215a3.94 3.94 0 0 1 .863 1.4 5.27 5.27 0 0 1 .307 1.828 5.48 5.48 0 0 1-.307 1.872 4.4 4.4 0 0 1-.863 1.463c-.745.831-1.811 1.3-2.927 1.288a4 4 0 0 1-1.638-.338 3.7 3.7 0 0 1-1.3-.951 4.5 4.5 0 0 1-.848-1.463c-.21-.601-.314-1.235-.307-1.872a5.27 5.27 0 0 1 .307-1.828m-6.832 6.364a10.33 10.33 0 0 0 2.414 3.5c1.052.983 2.292 1.744 3.644 2.238a13.56 13.56 0 0 0 9.129 0 10.91 10.91 0 0 0 3.658-2.238 10.24 10.24 0 0 0 2.429-3.5 11.4 11.4 0 0 0 .877-4.536 11.08 11.08 0 0 0-.877-4.492 9.9 9.9 0 0 0-2.429-3.409c-1.066-.955-2.308-1.691-3.658-2.166a14.08 14.08 0 0 0-9.129 0 10.75 10.75 0 0 0-3.644 2.166c-1.036.953-1.859 2.115-2.414 3.409a11.08 11.08 0 0 0-.878 4.492 11.4 11.4 0 0 0 .878 4.536m-9.287-8.954h7.168V.709h-13.985v20.717h6.844v-7.023h6.291V8.698h-6.32zM3.407.124A3.3 3.3 0 0 0 0 3.287v15.416a3.22 3.22 0 0 0 1.015 2.286c.62.648 1.497.988 2.392.926 1.785-.03 3.25-1.419 3.376-3.2V3.321C6.713 1.514 5.21.095 3.402.128m50.443 16.853L51.774 3.802c-.248-1.55-.851-3.62-3.428-3.638-2.3-.015-2.632.763-3.836 3.108l-2.856 6.765L38.8 3.276C37.6.933 37.27.155 34.966.168c-2.577.015-3.18 2.087-3.432 3.633L29.46 16.977l-.125 1.051a3.45 3.45 0 0 0 3.451 3.721 3.13 3.13 0 0 0 3.3-2.694l.88-4.374 1.627 4.241c.6 1.164 1.278 2.828 3.058 2.828 1.764 0 2.546-1.663 3.108-2.828l1.671-4.343.788 4.481c.236 1.617 1.668 2.786 3.3 2.693a3.41 3.41 0 0 0 2.55-1.094c.657-.71.982-1.664.895-2.626l-.122-1.051m10.375-9.306c-.578-.223-1.3-.845-1.112-1.489a1.24 1.24 0 0 1 1.545-.814 5.44 5.44 0 0 1 1.846 1.183 3.01 3.01 0 0 0 3.343.437 2.62 2.62 0 0 0 .883-3.388C69.906 2.028 68.422.904 66.683.547c-2.6-.616-6.914-.854-9.227 2.709a7.26 7.26 0 0 0-.3 6.411c1.139 2.443 3.96 3.217 6.352 3.9.731.214 1.765.722 1.476 1.629a1.27 1.27 0 0 1-1.456.766 5.2 5.2 0 0 1-2.451-1.243 5.16 5.16 0 0 0-2.851-.943c-2.069.023-2.983 2.451-2.4 4.225a3.87 3.87 0 0 0 .845 1.429 11.8 11.8 0 0 0 1.109.911c2.669 2.054 8.454 2.4 11.623-.041 1.408-1.211 2.266-2.94 2.379-4.794.367-4.942-3.985-6.437-7.573-7.831m17.346-.051a7.18 7.18 0 1 1-7.086 7.176c-.023-3.938 3.148-7.15 7.086-7.176"/><path d="M77.889 6.908c1.401.018 2.675-.812 3.224-2.101s.265-2.783-.719-3.78-2.474-1.302-3.77-.77-2.144 1.794-2.144 3.195c-.011 1.895 1.515 3.442 3.41 3.456m8.192.064c1.374.02 2.624-.793 3.163-2.057s.261-2.729-.705-3.707-2.426-1.276-3.698-.753-2.1 1.762-2.098 3.136c-.01 1.854 1.483 3.367 3.337 3.381m9.445 2.059a3.34 3.34 0 0 0-6.68.059 3.34 3.34 0 0 0 3.339 3.326 3.36 3.36 0 0 0 3.341-3.385m-1.967 4.49c-1.401-.019-2.675.81-3.224 2.099s-.266 2.782.717 3.78 2.473 1.302 3.769.771 2.144-1.793 2.145-3.194c.012-1.895-1.512-3.441-3.407-3.456m-75.509.588a1.74 1.74 0 0 1-1.621-1.055c-.277-.647-.134-1.399.36-1.9a1.74 1.74 0 0 1 1.895-.389c.652.266 1.079.9 1.08 1.605.003.458-.175.899-.497 1.225s-.759.512-1.217.515m9.623 3.062L22.491 4.816c-.889-2.27-1.616-4.63-4.392-4.63-2.845 0-3.558 2.426-4.5 4.655L8.516 17.17c-.8 2.1-.191 3.755 1.579 4.511 1.8.756 3.554-.081 4.408-2.015l1.111-2.269h5.177l.942 2.269a3.19 3.19 0 0 0 1.724 1.998c.836.386 1.798.393 2.64.018 1.768-.757 2.38-2.409 1.58-4.508m69.527-5.584v.217h.321v.864h.246v-.864h.323v-.217zm1.947 0l-.283.456-.286-.456h-.259v1.081h.23v-.731l.3.474h.021l.3-.474v.731h.233V11.59z"/></svg>