<svg xmlns="http://www.w3.org/2000/svg" width="156.638" height="63.556" fill="#fff" xmlns:v="https://vecta.io/nano"><path d="M138.311 62.829h18.326v-7.2h-10.18v-2.4h8.981v-6.727h-8.981v-2.217h9.562v-7.2h-17.708zM126.134 44.32h8.91v-7.236h-17.382v25.744h8.508v-8.727h7.82v-7.09h-7.856zm-21.667 18.509h8.723V37.085h-8.727zm-19.413 0h17.272v-7.455h-8.545v-18.29h-8.727zM59.025 43.811h2.057a7.6 7.6 0 0 1 .866.055 2.6 2.6 0 0 1 .866.253c.272.134.492.344.649.6a2.05 2.05 0 0 1 .252 1.092 1.84 1.84 0 0 1-.306 1.109 2.21 2.21 0 0 1-.757.655c-.305.159-.635.263-.976.308-.317.047-.636.071-.956.073h-1.7zm-8.326 19.018h8.4v-9.2h.253l4.933 9.2h9.94L67.69 52.396a7.29 7.29 0 0 0 4.5-6.946 8.2 8.2 0 0 0-.91-4.054 7.29 7.29 0 0 0-2.382-2.582 9.55 9.55 0 0 0-3.346-1.346 18.85 18.85 0 0 0-3.762-.381H50.699zm-22.2-15.29a5.02 5.02 0 0 1 1.054-1.745 4.75 4.75 0 0 1 1.619-1.11 5.17 5.17 0 0 1 2.035-.4c.693-.007 1.381.129 2.019.4a4.99 4.99 0 0 1 1.617 1.11c.478.499.844 1.094 1.074 1.745a6.55 6.55 0 0 1 .381 2.272c.009.792-.12 1.579-.381 2.327a5.42 5.42 0 0 1-1.074 1.818c-.925 1.033-2.25 1.616-3.636 1.6a4.97 4.97 0 0 1-2.035-.419 4.6 4.6 0 0 1-1.619-1.182 5.6 5.6 0 0 1-1.054-1.818c-.261-.748-.39-1.535-.381-2.327a6.55 6.55 0 0 1 .381-2.272m-8.49 7.909a12.86 12.86 0 0 0 3 4.345 13.35 13.35 0 0 0 4.528 2.781 16.85 16.85 0 0 0 11.344 0 13.56 13.56 0 0 0 4.546-2.781 12.75 12.75 0 0 0 3.018-4.345 14.16 14.16 0 0 0 1.09-5.637 13.77 13.77 0 0 0-1.09-5.582 12.31 12.31 0 0 0-3.018-4.236 13.56 13.56 0 0 0-4.546-2.692 17.5 17.5 0 0 0-11.344 0c-1.673.588-3.212 1.503-4.528 2.692a12.41 12.41 0 0 0-3 4.236 13.77 13.77 0 0 0-1.09 5.582 14.16 14.16 0 0 0 1.09 5.637M8.472 44.32h8.908v-7.236H0v25.744h8.509v-8.727h7.817v-7.09H8.472zM22.305.154c-2.25-.073-4.139 1.681-4.234 3.93v19.157a4 4 0 0 0 1.262 2.841 3.76 3.76 0 0 0 2.972 1.151 4.28 4.28 0 0 0 4.2-3.981l.005-19.13a4.13 4.13 0 0 0-4.2-3.968m62.673 20.948L82.41 4.731c-.308-1.924-1.058-4.5-4.26-4.52-2.859-.018-3.271.948-4.767 3.862l-3.549 8.406-3.549-8.408c-1.5-2.912-1.9-3.879-4.765-3.862-3.2.018-3.952 2.593-4.265 4.515l-2.577 16.373-.155 1.306a4.29 4.29 0 0 0 4.289 4.624c2.033.132 3.823-1.33 4.1-3.348l1.094-5.436 2.022 5.27c.748 1.446 1.588 3.514 3.8 3.514 2.192 0 3.164-2.066 3.862-3.514l2.077-5.4.979 5.569a3.92 3.92 0 0 0 4.1 3.346 4.24 4.24 0 0 0 4.282-4.623l-.151-1.306M97.872 9.538c-.718-.277-1.614-1.05-1.382-1.851.255-.807 1.111-1.258 1.92-1.012.857.329 1.637.829 2.294 1.47a3.74 3.74 0 0 0 4.154.543c1.388-.916 1.863-2.732 1.1-4.21a7.3 7.3 0 0 0-5.018-3.8c-3.239-.766-8.592-1.061-11.466 3.366a9.03 9.03 0 0 0-.372 7.967c1.415 3.036 4.922 4 7.894 4.852.908.266 2.194.9 1.834 2.024a1.58 1.58 0 0 1-1.809.952 6.46 6.46 0 0 1-3.045-1.544 6.42 6.42 0 0 0-3.541-1.174c-2.571.029-3.707 3.045-2.978 5.25a4.81 4.81 0 0 0 1.05 1.776 14.68 14.68 0 0 0 1.379 1.132c3.317 2.553 10.5 2.987 14.444-.051a8.55 8.55 0 0 0 2.956-5.957c.456-6.142-4.953-8-9.411-9.732m21.543-.065a8.92 8.92 0 1 1-8.806 8.917c-.029-4.893 3.913-8.885 8.806-8.917"/><path d="M114.863 8.59c1.741.022 3.323-1.009 4.005-2.611s.328-3.458-.895-4.697-3.074-1.617-4.685-.956-2.663 2.229-2.664 3.97a4.27 4.27 0 0 0 4.238 4.294m10.179.075a4.21 4.21 0 0 0 3.055-7.164 4.21 4.21 0 0 0-7.203 2.964 4.18 4.18 0 0 0 4.147 4.2m11.739 2.559a4.151 4.151 0 1 0-8.302.074 4.15 4.15 0 0 0 4.15 4.133c1.109-.006 2.17-.453 2.949-1.242a4.17 4.17 0 0 0 1.203-2.965m-2.444 5.579a4.29 4.29 0 1 0 4.234 4.293 4.27 4.27 0 0 0-4.234-4.293m-93.834.729a2.16 2.16 0 1 1 2.13-2.163c.005.569-.217 1.117-.617 1.523s-.944.636-1.513.64m11.959 3.806L46.016 5.984c-1.1-2.821-2.008-5.753-5.458-5.753-3.536 0-4.422 3.014-5.587 5.784l-6.317 15.317c-1 2.611-.237 4.666 1.962 5.605 2.236.939 4.417-.1 5.478-2.5l1.38-2.819h6.432l1.171 2.819a3.97 3.97 0 0 0 5.423 2.505c2.2-.941 2.958-2.994 1.964-5.6m86.399-6.939v.27h.4v1.07h.3v-1.074h.4v-.266zm2.422 0l-.354.567-.354-.567h-.323v1.34h.288v-.908l.372.589h.025l.37-.589v.908h.288v-1.34z"/></svg>