<svg xmlns="http://www.w3.org/2000/svg" width="51.638" height="15.789" viewBox="0 0 51.638 15.789">
  <g id="IAMS_Advanced_Health_lockup" data-name="IAMS Advanced Health lockup" transform="translate(0)">
    <g id="ADVANCED_HEALTH" data-name="ADVANCED HEALTH" transform="translate(0 12.315)">
      <path id="M" d="M665,163.377h-.117v-.5h0l-.112.5h-.123l-.109-.5h0v.5h-.117v-.6h.183l.109.47h0l.107-.47H665Z" transform="translate(-613.359 -162.587)" fill="#fff"/>
      <path id="T" d="M657.489,163.377h-.125v-.491h-.181v-.106h.488v.106h-.181Z" transform="translate(-606.681 -162.587)" fill="#fff"/>
      <path id="H" d="M619.438,161.28v1.338h-1.452V161.28h-.544V164.6h.544v-1.46h1.452v1.46h.544V161.28Z" transform="translate(-569.995 -161.202)" fill="#fff"/>
      <path id="T-2" data-name="T" d="M573.025,161.79h1.033V164.6h.544V161.79h1.033v-.51h-2.611Z" transform="translate(-528.991 -161.202)" fill="#fff"/>
      <path id="L" d="M541.861,161.28h-.544V164.6H543.3v-.51h-1.439Z" transform="translate(-499.719 -161.202)" fill="#fff"/>
      <path id="A" d="M490.007,161.28l-1.434,3.317h.6l1.057-2.552,1.06,2.552h.6l-1.424-3.317Z" transform="translate(-451.029 -161.202)" fill="#fff"/>
      <path id="E" d="M453.709,163.128h1.5v-.51h-1.5v-.829h1.6v-.51h-2.144V164.6h2.2v-.51h-1.652Z" transform="translate(-418.341 -161.202)" fill="#fff"/>
      <path id="H-2" data-name="H" d="M407,162.619H405.55V161.28h-.544V164.6h.544v-1.46H407v1.46h.544V161.28H407Z" transform="translate(-373.883 -161.202)" fill="#fff"/>
      <path id="D" d="M335.335,161.692a1.715,1.715,0,0,0-.561-.311,1.954,1.954,0,0,0-.614-.1h-1.14V164.6h1.14a1.952,1.952,0,0,0,.614-.1,1.712,1.712,0,0,0,.561-.311,1.6,1.6,0,0,0,.407-.519,1.767,1.767,0,0,0,0-1.452,1.592,1.592,0,0,0-.407-.521m-1.77.1h.508a1.455,1.455,0,0,1,.563.1,1.16,1.16,0,0,1,.391.259,1.058,1.058,0,0,1,.23.364,1.206,1.206,0,0,1,0,.852,1.058,1.058,0,0,1-.23.364,1.161,1.161,0,0,1-.391.259,1.454,1.454,0,0,1-.563.1h-.508Z" transform="translate(-307.43 -161.202)" fill="#fff"/>
      <path id="E-2" data-name="E" d="M292.554,163.128h1.5v-.51h-1.5v-.829h1.6v-.51h-2.144V164.6h2.2v-.51h-1.652Z" transform="translate(-269.57 -161.202)" fill="#fff"/>
      <path id="C" d="M244.12,162.817a.849.849,0,0,1-.353.308,1.1,1.1,0,0,1-.458.1,1.161,1.161,0,0,1-.486-.1,1.1,1.1,0,0,1-.365-.265,1.2,1.2,0,0,1-.233-.391,1.368,1.368,0,0,1-.082-.473,1.4,1.4,0,0,1,.08-.474,1.17,1.17,0,0,1,.23-.39,1.1,1.1,0,0,1,.365-.265,1.171,1.171,0,0,1,.49-.1.947.947,0,0,1,.247.031,1.081,1.081,0,0,1,.215.083.766.766,0,0,1,.165.113.669.669,0,0,1,.11.126l.066.1.451-.33-.064-.092a1.025,1.025,0,0,0-.221-.229,1.432,1.432,0,0,0-.285-.168,1.706,1.706,0,0,0-.688-.145,1.774,1.774,0,0,0-.683.131,1.647,1.647,0,0,0-.91.913,1.811,1.811,0,0,0-.131.693,1.837,1.837,0,0,0,.128.693,1.623,1.623,0,0,0,.906.913,1.8,1.8,0,0,0,.689.131,1.638,1.638,0,0,0,.415-.05,1.56,1.56,0,0,0,.348-.137,1.357,1.357,0,0,0,.281-.2,1.407,1.407,0,0,0,.206-.242l.065-.1-.438-.281Z" transform="translate(-223.017 -160.26)" fill="#fff"/>
      <path id="N" d="M195.164,163.664l-1.629-2.384h-.568V164.6h.544V162.19l1.628,2.407h.569V161.28h-.544Z" transform="translate(-178.138 -161.202)" fill="#fff"/>
      <path id="A-2" data-name="A" d="M141.658,161.28l-1.433,3.317h.6l1.056-2.552,1.061,2.552h.6l-1.424-3.317Z" transform="translate(-129.449 -161.202)" fill="#fff"/>
      <path id="V" d="M98.733,163.759l-.927-2.479h-.587l1.265,3.317h.49l1.27-3.317H99.66Z" transform="translate(-89.748 -161.202)" fill="#fff"/>
      <path id="D-2" data-name="D" d="M55,161.692a1.714,1.714,0,0,0-.561-.311,1.954,1.954,0,0,0-.614-.1h-1.14V164.6h1.14a1.951,1.951,0,0,0,.614-.1,1.712,1.712,0,0,0,.561-.311,1.6,1.6,0,0,0,.407-.519,1.768,1.768,0,0,0,0-1.452,1.592,1.592,0,0,0-.407-.521m-1.77.1h.508a1.455,1.455,0,0,1,.563.1,1.161,1.161,0,0,1,.391.259,1.057,1.057,0,0,1,.23.364,1.207,1.207,0,0,1,0,.852,1.058,1.058,0,0,1-.23.364,1.161,1.161,0,0,1-.391.259,1.454,1.454,0,0,1-.563.1H53.23Z" transform="translate(-48.637 -161.202)" fill="#fff"/>
      <path id="A-3" data-name="A" d="M1.434,161.28,0,164.6H.6l1.056-2.552L2.714,164.6h.6L1.891,161.28Z" transform="translate(0 -161.202)" fill="#fff"/>
    </g>
    <g id="IAMS" transform="translate(0.233)">
      <path id="M-2" data-name="M" d="M622.046,15.865h-.117v-.5h0l-.112.5h-.123l-.109-.5h0v.5h-.117v-.6h.183l.109.47h0l.107-.47h.181Z" transform="translate(-573.941 -14.095)" fill="#fff"/>
      <path id="T-3" data-name="T" d="M614.537,15.865h-.125v-.491h-.181v-.106h.488v.106h-.181Z" transform="translate(-567.263 -14.095)" fill="#fff"/>
      <path id="paw_print" data-name="paw print" d="M608.831,90.135a1.768,1.768,0,1,0,1.747,1.77,1.758,1.758,0,0,0-1.747-1.77" transform="translate(-560.663 -83.208)" fill="#fff"/>
      <path id="paw_print-2" data-name="paw print" d="M601.854,39.4a1.711,1.711,0,1,0-1.713,1.733,1.723,1.723,0,0,0,1.713-1.733" transform="translate(-552.677 -34.77)" fill="#fff"/>
      <path id="paw_print-3" data-name="paw print" d="M506.214,50.819a3.676,3.676,0,1,1-3.631,3.676,3.655,3.655,0,0,1,3.631-3.676" transform="translate(-464.194 -46.914)" fill="#fff"/>
      <path id="paw_print-4" data-name="paw print" d="M559.439,4.8a1.734,1.734,0,1,0-1.711-1.732A1.723,1.723,0,0,0,559.439,4.8" transform="translate(-515.102 -1.233)" fill="#fff"/>
      <path id="paw_print-5" data-name="paw print" d="M504.4,3.54a1.761,1.761,0,0,0,1.75-1.771,1.749,1.749,0,1,0-3.5,0A1.762,1.762,0,0,0,504.4,3.54" transform="translate(-464.254)" fill="#fff"/>
      <path id="S" d="M380.83,5.079c-.3-.115-.67-.436-.573-.768a.64.64,0,0,1,.8-.42A2.789,2.789,0,0,1,382,4.5a1.553,1.553,0,0,0,1.723.223,1.349,1.349,0,0,0,.455-1.746A3.031,3.031,0,0,0,382.1,1.4c-1.344-.318-3.567-.441-4.756,1.4a3.741,3.741,0,0,0-.155,3.3c.588,1.261,2.042,1.659,3.275,2.015.377.109.91.371.761.838a.659.659,0,0,1-.751.4,2.7,2.7,0,0,1-1.264-.642,2.636,2.636,0,0,0-1.468-.486c-1.067.011-1.538,1.262-1.235,2.177a1.972,1.972,0,0,0,.435.737,6.242,6.242,0,0,0,.572.469,5.59,5.59,0,0,0,5.991-.022,3.54,3.54,0,0,0,1.228-2.471c.188-2.547-2.055-3.318-3.905-4.036" transform="translate(-347.725 -1.122)" fill="#fff"/>
      <path id="M-3" data-name="M" d="M212.317,9.782,211.25,2.991c-.127-.8-.438-1.867-1.767-1.875-1.188-.007-1.358.393-1.978,1.6L206.033,6.2l-1.472-3.488c-.62-1.207-.789-1.608-1.976-1.6-1.328.008-1.64,1.076-1.769,1.873L199.747,9.78c-.027.171-.039.357-.064.541a1.779,1.779,0,0,0,1.779,1.919,1.612,1.612,0,0,0,1.7-1.389l.454-2.255.838,2.185c.31.6.659,1.458,1.577,1.458s1.313-.856,1.6-1.458l.863-2.238.4,2.31a1.63,1.63,0,0,0,1.7,1.388,1.758,1.758,0,0,0,1.774-1.918c-.029-.184-.033-.369-.062-.541" transform="translate(-184.559 -1.028)" fill="#fff"/>
      <path id="A-4" data-name="A" d="M67.9,10,65.222,3.63c-.458-1.171-.832-2.387-2.263-2.387-1.467,0-1.834,1.25-2.318,2.4L58.021,10a1.64,1.64,0,0,0,.812,2.325,1.7,1.7,0,0,0,2.273-1.039l.572-1.17h2.668l.485,1.17A1.669,1.669,0,1,0,67.9,10M62.935,8.42a.9.9,0,1,1,.883-.9.893.893,0,0,1-.883.9" transform="translate(-53.629 -1.147)" fill="#fff"/>
      <path id="I" d="M4.783.824a1.7,1.7,0,0,0-1.757,1.63V10.4a1.656,1.656,0,0,0,.525,1.177,1.56,1.56,0,0,0,1.233.478,1.773,1.773,0,0,0,1.741-1.652l0-7.934A1.711,1.711,0,0,0,4.783.824" transform="translate(-3.025 -0.76)" fill="#fff"/>
    </g>
  </g>
</svg>

