<svg xmlns="http://www.w3.org/2000/svg" width="91.166" height="27.875" fill="#fff" xmlns:v="https://vecta.io/nano"><path d="M91.166 23.137h-.206v-.88h0l-.2.88h-.217l-.193-.88h0v.88h-.206v-1.053h.323l.192.83h0l.189-.83h.32zm-1.465 0h-.224v-.867h-.32v-.186h.861v.186h-.32zm-2.409-1.256v2.363h-2.567v-2.363h-.961v5.856h.961v-2.578h2.564v2.578h.961v-5.856zm-9.551.9h1.824v4.956h.961v-4.956h1.824v-.9h-4.609zm-3.341-.9h-.961v5.856h3.5v-.9h-2.54zm-5.59 0l-2.531 5.856h1.054l1.865-4.505 1.872 4.505h1.06l-2.514-5.856zm-6.369 3.263h2.64v-.9h-2.64v-1.463h2.824v-.9H61.48v5.856h3.878v-.9h-2.917zm-3.971-.9h-2.564v-2.363h-.961v5.856h.961v-2.578h2.564v2.578h.961v-5.856h-.961zm-9.205-1.635a3.03 3.03 0 0 0-.99-.549 3.45 3.45 0 0 0-1.084-.18h-2.012v5.856h2.012a3.44 3.44 0 0 0 1.084-.18 3.01 3.01 0 0 0 .99-.549 2.82 2.82 0 0 0 .718-.916 3.12 3.12 0 0 0 0-2.563 2.81 2.81 0 0 0-.718-.92m-3.124.171h.9a2.57 2.57 0 0 1 .995.176 2.04 2.04 0 0 1 .69.458c.178.184.316.402.406.642a2.13 2.13 0 0 1 0 1.5c-.09.24-.228.458-.406.642a2.05 2.05 0 0 1-.69.457 2.57 2.57 0 0 1-.995.176h-.9zm-5.564 2.365h2.64v-.9h-2.64v-1.463h2.824v-.9h-3.785v5.856h3.878v-.9h-2.917zm-3.32 1.113a1.5 1.5 0 0 1-.623.544 1.94 1.94 0 0 1-.808.174 2.05 2.05 0 0 1-.858-.173c-.245-.11-.465-.27-.645-.469a2.12 2.12 0 0 1-.411-.69c-.097-.268-.146-.55-.145-.835a2.47 2.47 0 0 1 .142-.836c.089-.254.227-.487.406-.688s.4-.359.645-.469a2.07 2.07 0 0 1 .866-.173 1.68 1.68 0 0 1 .435.054 1.91 1.91 0 0 1 .379.146 1.38 1.38 0 0 1 .291.2 1.18 1.18 0 0 1 .194.222l.117.181.8-.583-.113-.163a1.81 1.81 0 0 0-.39-.4 2.53 2.53 0 0 0-.5-.3 3.01 3.01 0 0 0-1.214-.256 3.13 3.13 0 0 0-1.205.231 2.91 2.91 0 0 0-1.607 1.611 3.2 3.2 0 0 0-.231 1.224 3.24 3.24 0 0 0 .226 1.223c.288.735.867 1.319 1.6 1.613.387.156.8.235 1.217.231a2.89 2.89 0 0 0 .733-.089 2.73 2.73 0 0 0 .615-.241 2.4 2.4 0 0 0 .5-.356 2.48 2.48 0 0 0 .364-.428l.115-.172-.773-.5zm-7.199-.168l-2.875-4.208h-1v5.856h.961v-4.249l2.875 4.249h1v-5.856h-.961zm-8.503-4.208l-2.531 5.856h1.054l1.865-4.505 1.872 4.505h1.06l-2.514-5.856zm-5.692 4.376l-1.637-4.376H13.19l2.233 5.856h.865l2.241-5.856h-1.03zm-4.63-3.648a3.02 3.02 0 0 0-.99-.549 3.45 3.45 0 0 0-1.084-.18H7.148v5.856h2.014a3.44 3.44 0 0 0 1.084-.18 3.02 3.02 0 0 0 .99-.549 2.82 2.82 0 0 0 .718-.916 3.12 3.12 0 0 0 0-2.563 2.81 2.81 0 0 0-.718-.92m-3.124.171h.9a2.57 2.57 0 0 1 .995.176 2.05 2.05 0 0 1 .69.458c.178.184.316.402.406.642a2.13 2.13 0 0 1 0 1.5c-.09.24-.228.458-.406.642a2.05 2.05 0 0 1-.69.457c-.317.124-.655.184-.995.176h-.9zm-5.581-.898L0 27.737h1.054l1.865-4.505 1.872 4.505h1.06l-2.513-5.856zM85.339 3.125h-.206v-.88h0l-.2.88h-.217l-.193-.88h0v.88h-.206V2.072h.323l.192.83h0l.189-.83h.32zm-1.466 0h-.221v-.867h-.32v-.186h.861v.186h-.32zm1.576 9.104a3.12 3.12 0 1 0 3.084 3.124 3.1 3.1 0 0 0-3.084-3.124m1.781-4.062a3.021 3.021 0 1 0-6.042.05 3.02 3.02 0 0 0 3.018 3.01 3.04 3.04 0 0 0 3.024-3.06M74.596 6.894a6.49 6.49 0 1 1-6.411 6.49c-.02-3.562 2.849-6.467 6.411-6.49"/><path d="M78.686 6.304a3.06 3.06 0 0 0 2.218-5.212 3.06 3.06 0 0 0-5.239 2.154c-.008 1.678 1.343 3.045 3.021 3.057M71.28 6.25a3.11 3.11 0 0 0 3.089-3.126A3.09 3.09 0 0 0 69.72.403a3.09 3.09 0 0 0-1.528 2.721 3.11 3.11 0 0 0 3.087 3.127m-12.423.734c-.527-.2-1.182-.77-1.012-1.355a1.13 1.13 0 0 1 1.406-.742 4.91 4.91 0 0 1 1.68 1.079 2.74 2.74 0 0 0 3.043.394 2.38 2.38 0 0 0 .8-3.082A5.35 5.35 0 0 0 61.1.496c-2.374-.562-6.3-.779-8.4 2.464-.993 1.796-1.094 3.952-.274 5.834 1.037 2.226 3.605 2.928 5.781 3.557.666.192 1.607.655 1.344 1.479-.212.525-.772.82-1.325.7a4.76 4.76 0 0 1-2.232-1.134 4.66 4.66 0 0 0-2.592-.859c-1.885.02-2.715 2.228-2.18 3.844a3.48 3.48 0 0 0 .767 1.3c.32.296.657.573 1.01.829 2.43 1.869 7.693 2.187 10.577-.039a6.25 6.25 0 0 0 2.169-4.362c.333-4.5-3.628-5.858-6.894-7.126m-9.432 8.472l-1.883-11.99c-.225-1.411-.774-3.3-3.119-3.311-2.1-.013-2.4.694-3.492 2.828l-2.606 6.155-2.6-6.158C34.624.847 34.326.14 32.23.15c-2.345.014-2.9 1.9-3.122 3.307L27.22 15.448l-.113.956a3.14 3.14 0 0 0 3.141 3.387c1.488.095 2.796-.974 3-2.451l.8-3.981 1.48 3.858c.548 1.06 1.164 2.574 2.784 2.574s2.317-1.512 2.828-2.574l1.523-3.951.714 4.078a2.88 2.88 0 0 0 3.009 2.451 3.1 3.1 0 0 0 3.133-3.386l-.11-.955m-23.811.172L20.877 4.384c-.809-2.068-1.469-4.215-4-4.215-2.59 0-3.238 2.207-4.092 4.239L8.164 15.626c-.73 1.91-.174 3.414 1.434 4.1.773.326 1.647.314 2.41-.035a2.99 2.99 0 0 0 1.603-1.799l1.01-2.066h4.71l.856 2.066c.237.804.809 1.467 1.57 1.818a2.91 2.91 0 0 0 2.402.016c1.611-.686 2.167-2.192 1.439-4.1m-8.757-2.787a1.58 1.58 0 1 1 1.56-1.584c.004.867-.693 1.575-1.56 1.584M3.514.112A3.01 3.01 0 0 0 .412 2.988v14.034a2.92 2.92 0 0 0 .926 2.078c.564.59 1.361.899 2.176.844a3.13 3.13 0 0 0 3.072-2.917V3.019A3.02 3.02 0 0 0 3.514.112"/></svg>