<svg xmlns="http://www.w3.org/2000/svg" width="112.299" height="34.337" fill="#fff" xmlns:v="https://vecta.io/nano"><path d="M112.299 28.5h-.254v-1.084h0l-.243 1.084h-.267l-.238-1.084h0V28.5h-.254v-1.3h.4l.236 1.023h0l.232-1.023h.394zm-1.806 0h-.272v-1.067h-.394v-.23h1.061v.23h-.394zm-2.966-1.547v2.91h-3.158v-2.91h-1.184v7.213h1.184V30.99h3.158v3.176h1.184v-7.213zm-11.765 1.108h2.247v6.1h1.184v-6.1h2.244v-1.108H95.76zm-4.115-1.108h-1.184v7.213h4.312v-1.108h-3.128zm-6.881 0l-3.118 7.213h1.3l2.3-5.55 2.306 5.55h1.306l-3.1-7.213zm-7.85 4.02h3.251v-1.108h-3.252v-1.8h3.479v-1.112h-4.663v7.213h4.777v-1.108h-3.593zm-4.892-1.109h-3.158v-2.91h-1.184v7.213h1.184v-3.176h3.158v3.176h1.184v-7.214h-1.184zM60.685 27.85a3.73 3.73 0 0 0-1.219-.676 4.25 4.25 0 0 0-1.335-.221h-2.478v7.213h2.479c.454-.002.905-.076 1.335-.221.445-.147.859-.376 1.219-.676a3.47 3.47 0 0 0 .884-1.128c.452-1.004.452-2.154 0-3.158a3.46 3.46 0 0 0-.884-1.134m-3.848.211h1.105c.419-.009.835.064 1.225.217a2.52 2.52 0 0 1 .851.564 2.3 2.3 0 0 1 .5.791 2.63 2.63 0 0 1 0 1.853 2.3 2.3 0 0 1-.5.791c-.242.244-.531.436-.85.564-.39.153-.806.226-1.225.217h-1.112zm-6.854 2.913h3.252v-1.108h-3.252v-1.8h3.479v-1.112H48.8v7.213h4.777v-1.108h-3.593zm-4.094 1.372c-.188.291-.454.523-.768.67a2.39 2.39 0 0 1-1 .214c-.364.006-.724-.067-1.057-.214a2.4 2.4 0 0 1-.794-.577 2.61 2.61 0 0 1-.506-.85 2.96 2.96 0 0 1-.179-1.029 3.14 3.14 0 0 1 .175-1.03 2.54 2.54 0 0 1 .5-.848 2.4 2.4 0 0 1 .794-.577 2.55 2.55 0 0 1 1.067-.214 2.06 2.06 0 0 1 .536.067c.162.043.318.103.467.179a1.63 1.63 0 0 1 .358.247 1.45 1.45 0 0 1 .239.274l.145.223.98-.718-.139-.2a2.23 2.23 0 0 0-.48-.5 3.11 3.11 0 0 0-.619-.365 3.71 3.71 0 0 0-1.5-.315c-.509-.004-1.014.092-1.485.284a3.58 3.58 0 0 0-1.979 1.985 3.94 3.94 0 0 0-.284 1.508 4 4 0 0 0 .279 1.507 3.53 3.53 0 0 0 1.971 1.986c.477.192.986.289 1.5.284a3.56 3.56 0 0 0 .9-.109 3.4 3.4 0 0 0 .758-.3 2.94 2.94 0 0 0 .611-.439 3.06 3.06 0 0 0 .449-.527l.141-.212-.952-.612zm-8.865-.208l-3.544-5.184h-1.236v7.213h1.184v-5.234l3.541 5.234h1.237v-7.213h-1.184zm-10.474-5.184l-3.117 7.213h1.3l2.3-5.55 2.307 5.55h1.306l-3.1-7.213zm-7.011 5.391l-2.012-5.391h-1.281l2.751 7.213h1.066l2.761-7.213h-1.268zm-5.703-4.494a3.73 3.73 0 0 0-1.218-.677 4.25 4.25 0 0 0-1.335-.221H8.805v7.213h2.478c.454-.002.905-.076 1.335-.221a3.72 3.72 0 0 0 1.219-.676 3.47 3.47 0 0 0 .884-1.128c.452-1.004.452-2.154 0-3.158a3.46 3.46 0 0 0-.884-1.134m-3.848.211h1.1c.419-.009.835.064 1.225.217.319.128.608.32.85.564a2.3 2.3 0 0 1 .5.791 2.63 2.63 0 0 1 0 1.853 2.3 2.3 0 0 1-.5.791c-.242.244-.531.436-.85.564-.39.153-.806.226-1.225.217h-1.1zm-6.871-1.106L0 34.167h1.3l2.3-5.55 2.307 5.55h1.301l-3.1-7.213zM105.121 3.849h-.254V2.765h0l-.243 1.084h-.267l-.238-1.084h0v1.084h-.254v-1.3h.4l.236 1.023h0l.232-1.023h.394zm-1.803 0h-.272V2.783h-.394v-.23h1.061v.23h-.395zm1.939 11.215c-1.559-.019-2.976.906-3.586 2.341s-.293 3.097.803 4.206a3.85 3.85 0 0 0 4.196.857c1.443-.591 2.386-1.996 2.387-3.555.007-1.014-.39-1.99-1.102-2.712a3.82 3.82 0 0 0-2.698-1.137m2.194-5.003c-.026-2.049-1.704-3.691-3.753-3.674s-3.699 1.687-3.691 3.736 1.67 3.706 3.719 3.708a3.75 3.75 0 0 0 2.644-1.113 3.74 3.74 0 0 0 1.081-2.657M91.888 8.492c3.242-.039 6.186 1.885 7.454 4.869s.607 6.439-1.672 8.745-5.725 3.008-8.725 1.776-4.957-4.153-4.957-7.396a7.95 7.95 0 0 1 7.9-7.994"/><path d="M96.928 7.765a3.77 3.77 0 0 0 2.731-6.421 3.77 3.77 0 0 0-6.453 2.655 3.75 3.75 0 0 0 3.722 3.766M87.804 7.7a3.83 3.83 0 0 0 3.806-3.851c0-1.359-.725-2.615-1.902-3.295s-2.627-.68-3.805 0-1.902 1.936-1.902 3.295c-.011 2.112 1.688 3.834 3.8 3.852m-15.302.903c-.649-.251-1.456-.948-1.247-1.669a1.39 1.39 0 0 1 1.732-.914 6.06 6.06 0 0 1 2.07 1.329c1.033.912 2.517 1.104 3.748.486 1.254-.827 1.68-2.467.989-3.8A6.59 6.59 0 0 0 75.266.608c-2.924-.692-7.757-.959-10.344 3.036-1.223 2.213-1.348 4.868-.338 7.186 1.278 2.742 4.441 3.607 7.122 4.382.82.237 1.979.807 1.656 1.822-.262.646-.95 1.011-1.632.863a5.86 5.86 0 0 1-2.749-1.4 5.73 5.73 0 0 0-3.193-1.058c-2.321.025-3.345 2.745-2.685 4.735a4.29 4.29 0 0 0 .945 1.6c.394.365.81.706 1.244 1.021 2.994 2.3 9.476 2.694 13.029-.048a7.7 7.7 0 0 0 2.666-5.36c.41-5.538-4.469-7.216-8.492-8.778M60.872 19.037L58.553 4.272c-.277-1.738-.954-4.06-3.842-4.078-2.583-.016-2.954.855-4.3 3.484l-3.2 7.583-3.2-7.586c-1.348-2.626-1.716-3.5-4.3-3.484-2.889.018-3.566 2.339-3.846 4.074l-2.326 14.771-.14 1.177a3.87 3.87 0 0 0 3.869 4.173c1.834.119 3.449-1.199 3.7-3.02l.987-4.9 1.823 4.752c.675 1.305 1.434 3.171 3.429 3.171 1.978 0 2.854-1.862 3.483-3.171l1.876-4.867.88 5.023c.269 1.813 1.876 3.123 3.706 3.019 1.083.015 2.122-.431 2.858-1.226a3.82 3.82 0 0 0 1.001-2.945l-.135-1.177m-29.345.204L25.716 5.4c-1-2.547-1.81-5.192-4.922-5.192-3.19 0-3.989 2.719-5.04 5.221l-5.7 13.817c-.9 2.353-.215 4.206 1.767 5.055 2.018.847 3.987-.093 4.943-2.259l1.244-2.545h5.8l1.055 2.545a3.58 3.58 0 0 0 4.892 2.26c1.985-.846 2.67-2.7 1.772-5.054m-10.783-3.432a1.95 1.95 0 1 1 1.921-1.951 1.94 1.94 0 0 1-1.921 1.951M4.329.138A3.7 3.7 0 0 0 .507 3.682v17.286a3.6 3.6 0 0 0 1.141 2.56 3.39 3.39 0 0 0 2.68 1.04 3.86 3.86 0 0 0 3.787-3.593V3.72A3.72 3.72 0 0 0 4.329.138"/></svg>